<?xml version="1.0" encoding="utf-8"?>
<!-- Generator: Adobe Illustrator 22.0.0, SVG Export Plug-In . SVG Version: 6.00 Build 0)  -->
<svg version="1.1" id="Capa_1" xmlns="http://www.w3.org/2000/svg" xmlns:xlink="http://www.w3.org/1999/xlink" x="0px" y="0px"
	 viewBox="0 0 512 512" style="enable-background:new 0 0 512 512;" xml:space="preserve">
<style type="text/css">
	.st0{fill:#FFFFFF;}
</style>
<g id="Close">
	<path class="st0" d="M316.9,256L499.4,73.5c16.8-16.8,16.8-44,0-60.8c-16.8-16.8-44-16.8-60.8,0L256,195.2L73.5,12.6
		c-16.8-16.8-44-16.8-60.8,0c-16.8,16.8-16.8,44,0,60.8L195.2,256L12.6,438.5c-16.8,16.8-16.8,44,0,60.8c16.8,16.8,44,16.8,60.8,0
		L256,316.8l182.5,182.5c16.8,16.8,44,16.8,60.8,0c16.8-16.8,16.8-44,0-60.8L316.9,256z"/>
</g>
</svg>
